<?xml version="1.0" encoding="iso-8859-1"?><!-- Generator: Adobe Illustrator 16.0.0, SVG Export Plug-In . SVG Version: 6.00 Build 0) --><!DOCTYPE svg PUBLIC "-//W3C//DTD SVG 1.1//EN" "http://www.w3.org/Graphics/SVG/1.1/DTD/svg11.dtd"><svg version="1.1" id="Layer_1" shape-rendering="geometricPrecision" text-rendering="geometricPrecision" image-rendering="optimizeQuality" xmlns="http://www.w3.org/2000/svg" xmlns:xlink="http://www.w3.org/1999/xlink" x="0px" y="0px" width="1277.149px" height="924.008px" viewBox="7.086 7.087 1277.149 924.008" style="enable-background:new 7.086 7.087 1277.149 924.008;" xml:space="preserve"><g id="Capa_x0020_1"><line style="fill:none;" x1="1138.734" y1="931.095" x2="1139.017" y2="931.095"/><line style="fill:none;" x1="1139.017" y1="931.095" x2="1138.734" y2="931.095"/><path style="fill:#E75A4D;" d="M1179.439,7.087c57.543,0,104.627,47.083,104.627,104.626v30.331l-145.36,103.833L643.833,586.771	L148.96,242.419v654.067v34.609h-37.247c-57.543,0-104.627-47.082-104.627-104.625V111.742C7.086,54.198,54.17,7.115,111.713,7.115	l532.12,394.525L1179.41,7.115L1179.439,7.087z"/><linearGradient id="SVGID_1_" gradientUnits="userSpaceOnUse" x1="1959.7122" y1="737.1069" x2="26066.2129" y2="737.1069" gradientTransform="matrix(0.0283 0 0 -0.0283 248.3594 225.244)"><stop offset="0" style="stop-color:#F8F6EF"/><stop offset="1" style="stop-color:#E7E4D6"/></linearGradient><polygon style="fill:url(#SVGID_1_);" points="111.713,7.087 643.833,401.612 1179.439,7.087	"/><polygon style="fill:#E7E4D7;" points="148.96,242.419 148.96,931.095 1138.734,931.095 1138.734,245.877 643.833,586.771	"/><polygon style="fill:#B8B7AE;" points="148.96,931.095 643.833,586.771 641.593,585.185 148.96,923.527	"/><polygon style="fill:#B7B6AD;" points="1138.734,245.877 1139.017,931.095 643.833,586.771	"/><path style="fill:#B2392F;" d="M1284.066,142.044l0.17,684.51c-2.494,76.082-35.461,103.238-145.219,104.514l-0.283-685.219	l145.36-103.833L1284.066,142.044z"/><linearGradient id="SVGID_2_" gradientUnits="userSpaceOnUse" x1="1959.7122" y1="737.1069" x2="26066.2129" y2="737.1069" gradientTransform="matrix(0.0283 0 0 -0.0283 248.3594 225.244)"><stop offset="0" style="stop-color:#F8F6EF"/><stop offset="1" style="stop-color:#E7E4D6"/></linearGradient><polygon style="fill:url(#SVGID_2_);" points="111.713,7.087 643.833,401.612 1179.439,7.087	"/><linearGradient id="SVGID_3_" gradientUnits="userSpaceOnUse" x1="1959.7122" y1="737.1069" x2="26066.2129" y2="737.1069" gradientTransform="matrix(0.0283 0 0 -0.0283 248.3594 225.244)"><stop offset="0" style="stop-color:#F8F6EF"/><stop offset="1" style="stop-color:#E7E4D6"/></linearGradient><polygon style="fill:url(#SVGID_3_);" points="111.713,7.087 643.833,401.612 1179.439,7.087	"/><linearGradient id="SVGID_4_" gradientUnits="userSpaceOnUse" x1="1959.7122" y1="737.1069" x2="26066.2129" y2="737.1069" gradientTransform="matrix(0.0283 0 0 -0.0283 248.3594 225.244)"><stop offset="0" style="stop-color:#F8F6EF"/><stop offset="1" style="stop-color:#E7E4D6"/></linearGradient><polygon style="fill:url(#SVGID_4_);" points="111.713,7.087 643.833,401.612 1179.439,7.087	"/><linearGradient id="SVGID_5_" gradientUnits="userSpaceOnUse" x1="1959.7122" y1="737.1069" x2="26066.2129" y2="737.1069" gradientTransform="matrix(0.0283 0 0 -0.0283 248.3594 225.244)"><stop offset="0" style="stop-color:#F8F6EF"/><stop offset="1" style="stop-color:#E7E4D6"/></linearGradient><polygon style="fill:url(#SVGID_5_);" points="111.713,7.087 643.833,401.612 1179.439,7.087	"/><linearGradient id="SVGID_6_" gradientUnits="userSpaceOnUse" x1="1959.7122" y1="737.1069" x2="26066.2129" y2="737.1069" gradientTransform="matrix(0.0283 0 0 -0.0283 248.3594 225.244)"><stop offset="0" style="stop-color:#F8F6EF"/><stop offset="1" style="stop-color:#E7E4D6"/></linearGradient><polygon style="fill:url(#SVGID_6_);" points="111.713,7.087 643.833,401.612 1179.439,7.087	"/><linearGradient id="SVGID_7_" gradientUnits="userSpaceOnUse" x1="1959.7122" y1="737.1069" x2="26066.2129" y2="737.1069" gradientTransform="matrix(0.0283 0 0 -0.0283 248.3594 225.244)"><stop offset="0" style="stop-color:#F8F6EF"/><stop offset="1" style="stop-color:#E7E4D6"/></linearGradient><polygon style="fill:url(#SVGID_7_);" points="111.713,7.087 643.833,401.612 1179.439,7.087	"/><linearGradient id="SVGID_8_" gradientUnits="userSpaceOnUse" x1="1959.7122" y1="737.1069" x2="26066.2129" y2="737.1069" gradientTransform="matrix(0.0283 0 0 -0.0283 248.3594 225.244)"><stop offset="0" style="stop-color:#F8F6EF"/><stop offset="1" style="stop-color:#E7E4D6"/></linearGradient><polygon style="fill:url(#SVGID_8_);" points="111.713,7.087 643.833,401.612 1179.439,7.087	"/><polygon style="fill:#F7F5ED;" points="111.713,7.087 643.833,401.612 1179.439,7.087	"/></g></svg>