<?xml version="1.0" encoding="utf-8"?><!-- Generator: Adobe Illustrator 16.0.0, SVG Export Plug-In . SVG Version: 6.00 Build 0) --><!DOCTYPE svg PUBLIC "-//W3C//DTD SVG 1.1//EN" "http://www.w3.org/Graphics/SVG/1.1/DTD/svg11.dtd"><svg version="1.1" id="Layer_1" xmlns="http://www.w3.org/2000/svg" xmlns:xlink="http://www.w3.org/1999/xlink" x="0px" y="0px" width="53.9px" height="37.855px" viewBox="5.368 13.434 53.9 37.855" enable-background="new 5.368 13.434 53.9 37.855" xml:space="preserve"><path fill="#FFFFFF" d="M41.272,31.81c-4.942-2.641-9.674-5.069-14.511-7.604c0,5.048,0,10.117,0,15.165	c5.09-2.767,10.455-5.301,14.532-7.561H41.272z"/><path fill="#E8E0E0" d="M41.272,31.81c-4.942-2.641-14.511-7.604-14.511-7.604l12.758,8.575C39.52,32.781,37.195,34.07,41.272,31.81	z"/><path fill="#CD201F" d="M27.691,51.242c-10.265-0.189-13.771-0.359-15.926-0.803c-1.458-0.295-2.725-0.95-3.654-1.9	c-0.718-0.719-1.289-1.816-1.732-3.338c-0.38-1.268-0.528-2.323-0.739-4.9c-0.323-5.816-0.4-10.571,0-15.884	C5.97,21.483,6.13,18,8.322,15.968c1.035-0.951,2.239-1.563,3.591-1.816c2.112-0.401,11.11-0.718,20.425-0.718	c9.294,0,18.312,0.317,20.426,0.718c1.689,0.317,3.273,1.267,4.203,2.492c2,3.146,2.035,7.058,2.238,10.118	c0.084,1.458,0.084,9.737,0,11.195c-0.316,4.836-0.57,6.547-1.288,8.321c-0.444,1.12-0.823,1.711-1.479,2.366	c-1.015,0.992-2.303,1.668-3.76,1.922C43.795,51.234,36.252,51.379,27.691,51.242z M41.294,31.81	c-4.942-2.641-9.674-5.09-14.511-7.625c0,5.048,0,10.118,0,15.166c5.09-2.767,10.456-5.302,14.532-7.562L41.294,31.81z"/></svg>